<svg width="82" height="83" viewBox="0 0 82 83" fill="none" xmlns="http://www.w3.org/2000/svg">
<g filter="url(#filter0_d)">
<circle cx="40.7681" cy="40.1502" r="39.2205" fill="#E1DDDD"/>
</g>
<g clip-path="url(#clip0)">
<path d="M56.4469 40.7566C55.3402 39.8445 53.5911 39.7663 52.4431 40.9983L49.5932 44.0577C49.2247 42.8735 48.1187 42.0112 46.815 42.0112H41.7292C41.3433 42.0112 41.214 41.8639 40.5437 41.3474C37.9878 39.1193 34.1489 39.1264 31.6008 41.3688L29.7314 43.0144C28.8911 42.5697 27.9099 42.5587 27.065 42.9808L24.9209 44.0526C24.4419 44.2924 24.248 44.8748 24.4872 45.3538L30.3047 56.9889C30.5446 57.4679 31.1269 57.6618 31.606 57.4226L33.75 56.3503C34.8069 55.8222 35.3951 54.7439 35.357 53.6464H46.8149C48.9396 53.6464 50.97 52.6316 52.2447 50.9316L56.8994 44.7249C57.8024 43.5219 57.6595 41.7578 56.4469 40.7566ZM32.8825 54.6159L31.6059 55.2546L26.6552 45.3538L27.9325 44.7152C28.4115 44.476 28.9932 44.6693 29.233 45.1489L33.3163 53.3154C33.5555 53.7944 33.3615 54.3761 32.8825 54.6159ZM55.348 43.5613L50.6934 49.768C49.7826 50.9826 48.3327 51.7072 46.815 51.7072H34.6802L31.0468 44.4398L32.8819 42.8245C34.7079 41.2181 37.4616 41.2181 39.2877 42.8245C40.3633 43.7714 41.0323 43.9505 41.7291 43.9505H46.8149C47.3495 43.9505 47.7845 44.3855 47.7845 44.9201C47.7845 45.4546 47.3495 45.8897 46.8149 45.8897H41.8629C41.3277 45.8897 40.8933 46.3241 40.8933 46.8592C40.8933 47.3944 41.3277 47.8288 41.8629 47.8288H47.4646C48.2694 47.8288 49.0451 47.4914 49.5932 46.9026L53.862 42.3202C54.2524 41.9014 54.851 41.9363 55.2181 42.2575C55.6021 42.5936 55.6435 43.1683 55.348 43.5613Z" fill="#5B5959"/>
<path d="M44.7725 31.0452C45.4363 30.3491 45.8455 29.4079 45.8455 28.3717C45.8455 26.2373 44.1209 24.4287 41.9671 24.4287C39.8295 24.4287 38.0241 26.2341 38.0241 28.3717C38.0241 29.3762 38.4178 30.3245 39.1327 31.053C37.3597 32.0471 36.085 33.9553 36.085 36.1931V37.1627C36.085 37.6979 36.5194 38.1323 37.0545 38.1323H46.8151C47.3503 38.1323 47.7847 37.6979 47.7847 37.1627V36.1931C47.7846 33.9992 46.5779 32.0614 44.7725 31.0452ZM41.9671 26.3679C43.0182 26.3679 43.9063 27.2858 43.9063 28.3718C43.9063 29.4409 43.0363 30.3109 41.9671 30.3109C40.8812 30.3109 39.9633 29.4228 39.9633 28.3718C39.9633 27.3046 40.8999 26.3679 41.9671 26.3679ZM38.0241 36.1931C38.0241 34.0555 39.8295 32.2501 41.9671 32.2501C44.1054 32.2501 45.8455 34.0186 45.8455 36.1931H38.0241Z" fill="#5B5959"/>
</g>
<defs>
<filter id="filter0_d" x="0.22371" y="0.929688" width="81.0887" height="81.0887" filterUnits="userSpaceOnUse" color-interpolation-filters="sRGB">
<feFlood flood-opacity="0" result="BackgroundImageFix"/>
<feColorMatrix in="SourceAlpha" type="matrix" values="0 0 0 0 0 0 0 0 0 0 0 0 0 0 0 0 0 0 127 0"/>
<feOffset dy="1.3239"/>
<feGaussianBlur stdDeviation="0.661949"/>
<feColorMatrix type="matrix" values="0 0 0 0 0 0 0 0 0 0 0 0 0 0 0 0 0 0 0.25 0"/>
<feBlend mode="normal" in2="BackgroundImageFix" result="effect1_dropShadow"/>
<feBlend mode="normal" in="SourceGraphic" in2="effect1_dropShadow" result="shape"/>
</filter>
<clipPath id="clip0">
<rect width="33.0974" height="33.0974" fill="white" transform="translate(24.3848 24.4287)"/>
</clipPath>
</defs>
</svg>
