<svg width="85" height="85" viewBox="0 0 85 85" fill="none" xmlns="http://www.w3.org/2000/svg">
<g filter="url(#filter0_d)">
<circle cx="44.5182" cy="39.7953" r="39.516" fill="#E1DDDD"/>
</g>
<path d="M41.3199 38.7328C41.2568 38.6699 41.1767 38.6386 41.0788 38.6386H28.0062V36.2922C28.0062 36.1525 27.9398 36.0513 27.8072 35.9884C27.6744 35.9326 27.5522 35.9536 27.4405 36.0513L23.4181 39.7593C23.3483 39.8293 23.3135 39.9131 23.3135 40.0108C23.3135 40.1015 23.3483 40.1819 23.4181 40.2517L27.4406 43.918C27.5523 44.0087 27.6745 44.0264 27.8073 43.9703C27.9398 43.9145 28.0063 43.8134 28.0063 43.6666V41.3202H41.0791C41.1768 41.3202 41.2572 41.2887 41.3199 41.2261C41.3827 41.1633 41.414 41.0831 41.414 40.9853V38.9739C41.4142 38.8762 41.3826 38.7957 41.3199 38.7328Z" fill="#5B5959"/>
<path d="M65.5977 39.7096L61.5754 36.0433C61.4636 35.9525 61.3414 35.935 61.2087 35.9909C61.0762 36.0469 61.0096 36.1481 61.0096 36.2948V38.6412H47.937C47.8392 38.6412 47.7588 38.6725 47.6961 38.7354C47.6333 38.7982 47.6018 38.8785 47.6018 38.9763V40.9874C47.6018 41.0851 47.6332 41.1655 47.696 41.2282C47.7589 41.291 47.8393 41.3224 47.937 41.3224H61.0097V43.6688C61.0097 43.8086 61.0764 43.9098 61.2088 43.9725C61.3417 44.0286 61.4638 44.0074 61.5756 43.9098L65.5979 40.2014C65.6677 40.1316 65.7025 40.048 65.7025 39.9501C65.7025 39.8596 65.6675 39.7794 65.5977 39.7096Z" fill="#5B5959"/>
<defs>
<filter id="filter0_d" x="3.66832" y="0.279297" width="81.6997" height="81.6997" filterUnits="userSpaceOnUse" color-interpolation-filters="sRGB">
<feFlood flood-opacity="0" result="BackgroundImageFix"/>
<feColorMatrix in="SourceAlpha" type="matrix" values="0 0 0 0 0 0 0 0 0 0 0 0 0 0 0 0 0 0 127 0"/>
<feOffset dy="1.33387"/>
<feGaussianBlur stdDeviation="0.666937"/>
<feColorMatrix type="matrix" values="0 0 0 0 0 0 0 0 0 0 0 0 0 0 0 0 0 0 0.25 0"/>
<feBlend mode="normal" in2="BackgroundImageFix" result="effect1_dropShadow"/>
<feBlend mode="normal" in="SourceGraphic" in2="effect1_dropShadow" result="shape"/>
</filter>
</defs>
</svg>
