<svg width="84" height="83" viewBox="0 0 84 83" fill="none" xmlns="http://www.w3.org/2000/svg">
<g filter="url(#filter0_d)">
<circle cx="42.1734" cy="40.0659" r="40.0073" fill="#E1DDDD"/>
</g>
<path d="M57.2179 38.1365C56.7693 37.6881 56.2281 37.4638 55.5939 37.4638H55.5944V30.5748C55.5944 29.9527 55.3669 29.4146 54.9127 28.9601C54.4583 28.5056 53.9194 28.2783 53.2978 28.2783C47.7843 32.8709 42.4261 35.1674 37.2234 35.1674H28.6124C27.8231 35.1674 27.1472 35.4484 26.5851 36.0105C26.0229 36.5729 25.7419 37.2487 25.7419 38.0379V41.4823C25.7419 42.2717 26.0224 42.9476 26.5847 43.5097C27.1468 44.0722 27.8226 44.3528 28.612 44.3528H30.8008C30.5975 44.999 30.4659 45.66 30.4062 46.3352C30.3466 47.0111 30.3256 47.5998 30.3434 48.1024C30.3613 48.6047 30.4511 49.2086 30.6126 49.9143C30.7739 50.6199 30.9116 51.152 31.0252 51.5107C31.1387 51.8698 31.3301 52.4347 31.5992 53.206C31.8682 53.9775 32.0447 54.5007 32.1283 54.7757C32.6784 55.278 33.4677 55.6101 34.4963 55.7714C35.5251 55.9324 36.5327 55.864 37.5194 55.5649C38.506 55.266 39.1728 54.7693 39.5196 54.076C39.0652 53.7171 38.6975 53.4152 38.4165 53.1699C38.1354 52.9248 37.8484 52.6261 37.5552 52.2732C37.2621 51.9205 37.062 51.5914 36.9543 51.2866C36.8468 50.9816 36.8108 50.6348 36.8468 50.2459C36.8826 49.857 37.0202 49.4653 37.2594 49.0709C36.805 48.6043 36.5655 48.0512 36.5418 47.4113C36.518 46.7717 36.7034 46.1705 37.098 45.6084C37.4925 45.0464 38.037 44.6515 38.7305 44.4244C43.455 44.819 48.3106 47.0913 53.298 51.2417C53.9196 51.2417 54.4585 51.0144 54.9125 50.5598C55.367 50.1056 55.5941 49.5672 55.5941 48.9454V42.0565C56.2285 42.0565 56.7697 41.8324 57.2181 41.3838C57.6662 40.9352 57.8907 40.394 57.8907 39.7603C57.8905 39.1263 57.6661 38.5851 57.2179 38.1365ZM53.2979 48.2996C48.6212 44.7238 44.0289 42.6842 39.52 42.1821V37.3381C43.9929 36.8477 48.5858 34.7966 53.2979 31.1847V48.2996Z" fill="#5B5959"/>
<defs>
<filter id="filter0_d" x="0.815557" y="0.0585938" width="82.7156" height="82.7156" filterUnits="userSpaceOnUse" color-interpolation-filters="sRGB">
<feFlood flood-opacity="0" result="BackgroundImageFix"/>
<feColorMatrix in="SourceAlpha" type="matrix" values="0 0 0 0 0 0 0 0 0 0 0 0 0 0 0 0 0 0 127 0"/>
<feOffset dy="1.35046"/>
<feGaussianBlur stdDeviation="0.675229"/>
<feColorMatrix type="matrix" values="0 0 0 0 0 0 0 0 0 0 0 0 0 0 0 0 0 0 0.25 0"/>
<feBlend mode="normal" in2="BackgroundImageFix" result="effect1_dropShadow"/>
<feBlend mode="normal" in="SourceGraphic" in2="effect1_dropShadow" result="shape"/>
</filter>
</defs>
</svg>
