<svg width="84" height="80" viewBox="0 0 84 80" fill="none" xmlns="http://www.w3.org/2000/svg">
<g filter="url(#filter0_d)">
<circle cx="43.7335" cy="38.6934" r="38.5929" fill="#E1DDDD"/>
</g>
<path d="M55.1327 26.8798C55.1327 26.4764 54.7557 26.1494 54.2917 26.1494C49.8465 26.1494 46.0237 28.51 44.3944 31.865C42.7649 28.51 38.942 26.1494 34.4961 26.1494C34.0321 26.1494 33.656 26.4764 33.656 26.8798C33.656 31.7817 38.0243 35.8132 43.5543 36.187V40.9612C43.5543 41.3646 43.9304 41.6916 44.3944 41.6916C44.8583 41.6916 45.2345 41.3646 45.2345 40.9612V36.187C50.7645 35.8132 55.1327 31.7817 55.1327 26.8798ZM35.3788 27.6472C39.6705 28.0094 43.095 30.9865 43.5116 34.7176C39.2203 34.3551 35.7959 31.378 35.3788 27.6472ZM45.2771 34.7177C45.6937 30.9868 49.1179 28.0098 53.4099 27.6472C52.9928 31.3781 49.5684 34.3551 45.2771 34.7177Z" fill="#5B5959"/>
<path d="M39.1394 40.8371C38.0871 39.9223 36.4094 39.9081 35.3362 40.7668V37.8324C35.3362 35.7055 33.3456 33.9736 30.8977 33.9736H30.8967C30.4328 33.9736 30.0566 34.3006 30.0566 34.704V44.0916C30.0566 44.2853 30.1452 44.4711 30.3027 44.608L35.4557 49.088V50.3501C35.4557 50.7534 35.8318 51.0804 36.2958 51.0804H42.5947C43.0587 51.0804 43.4348 50.7534 43.4348 50.3501V46.1702C43.4348 45.1392 42.973 44.17 42.1346 43.4411L39.1394 40.8371ZM41.7546 49.6197H37.1359V48.7855C37.1359 48.5918 37.0474 48.406 36.8898 48.2691L31.7368 43.7891V35.5494C33.3242 35.9923 33.656 37.271 33.656 37.8324V42.5271C33.656 42.7208 33.7446 42.9065 33.9021 43.0435L37.5015 46.1727C37.8296 46.4579 38.3616 46.4579 38.6896 46.1727C39.0177 45.8875 39.0177 45.4251 38.6896 45.1398L36.44 43.1841C36.0224 42.821 36.022 42.2334 36.44 41.87C36.8578 41.5068 37.5334 41.5067 37.9514 41.87L40.9465 44.474C41.4677 44.927 41.7547 45.5294 41.7547 46.1702V49.6197H41.7546Z" fill="#5B5959"/>
<path d="M57.8922 33.9736H57.8913C55.4434 33.9736 53.4528 35.7056 53.4528 37.8324V40.7668C52.3796 39.9081 50.702 39.9223 49.6496 40.8371L46.6544 43.4411C45.816 44.17 45.3542 45.1392 45.3542 46.1702V50.35C45.3542 50.7534 45.7304 51.0804 46.1943 51.0804H52.4932C52.9572 51.0804 53.3333 50.7534 53.3333 50.35V49.0879L58.4863 44.608C58.6438 44.4711 58.7323 44.2853 58.7323 44.0916V34.704C58.7323 34.3006 58.3562 33.9736 57.8922 33.9736ZM57.0521 43.7891L51.8992 48.269C51.7416 48.4059 51.6531 48.5917 51.6531 48.7854V49.6197H47.0344V46.1702C47.0344 45.5294 47.3214 44.927 47.8425 44.4739L50.8376 41.87C51.2557 41.5066 51.9313 41.5068 52.3491 41.87C52.767 42.2334 52.7667 42.8209 52.3491 43.184L50.0995 45.1398C49.7714 45.425 49.7714 45.8874 50.0995 46.1727C50.4275 46.4579 50.9595 46.4579 51.2875 46.1727L54.8869 43.0435C55.0445 42.9065 55.133 42.7207 55.133 42.527V37.8324C55.133 37.271 55.4649 35.9923 57.0522 35.5493V43.7891H57.0521Z" fill="#5B5959"/>
<defs>
<filter id="filter0_d" x="3.83791" y="0.100586" width="79.7911" height="79.7911" filterUnits="userSpaceOnUse" color-interpolation-filters="sRGB">
<feFlood flood-opacity="0" result="BackgroundImageFix"/>
<feColorMatrix in="SourceAlpha" type="matrix" values="0 0 0 0 0 0 0 0 0 0 0 0 0 0 0 0 0 0 127 0"/>
<feOffset dy="1.30271"/>
<feGaussianBlur stdDeviation="0.651356"/>
<feColorMatrix type="matrix" values="0 0 0 0 0 0 0 0 0 0 0 0 0 0 0 0 0 0 0.25 0"/>
<feBlend mode="normal" in2="BackgroundImageFix" result="effect1_dropShadow"/>
<feBlend mode="normal" in="SourceGraphic" in2="effect1_dropShadow" result="shape"/>
</filter>
</defs>
</svg>
