<svg width="83" height="83" viewBox="0 0 83 83" fill="none" xmlns="http://www.w3.org/2000/svg">
<g filter="url(#filter0_d)">
<circle cx="41.6719" cy="40.3589" r="39.7613" fill="#E1DDDD"/>
</g>
<path d="M48.8241 43.6356C48.6703 43.1809 48.4838 42.7852 48.2647 42.4492C48.0457 42.1128 47.7322 41.7847 47.3233 41.4638C46.9149 41.143 46.5476 40.8847 46.2219 40.6883C45.8963 40.4917 45.4491 40.272 44.8806 40.0288C44.3125 39.7856 43.8624 39.6046 43.531 39.4856C43.1993 39.3668 42.7194 39.2039 42.0916 38.997C41.5351 38.8109 41.1207 38.6687 40.848 38.5705C40.5757 38.4722 40.2175 38.3326 39.7734 38.1515C39.3294 37.9707 38.9978 37.8103 38.7787 37.6707C38.5596 37.5312 38.3258 37.3605 38.077 37.1589C37.8282 36.9572 37.6536 36.7426 37.5528 36.5151C37.4524 36.2875 37.402 36.0392 37.402 35.7703C37.402 35.0671 37.7571 34.4929 38.4677 34.0483C39.1783 33.6037 40.0963 33.3813 41.2214 33.3813C41.7185 33.3813 42.2254 33.4407 42.7402 33.5597C43.255 33.6788 43.6962 33.8129 44.0634 33.963C44.4309 34.1131 44.7771 34.2786 45.1029 34.4595C45.4287 34.6405 45.6595 34.7775 45.7958 34.8706C45.932 34.9637 46.0183 35.0257 46.0535 35.0568C46.2077 35.1602 46.3671 35.1963 46.533 35.1654C46.7105 35.1551 46.8469 35.0722 46.9418 34.9172L48.381 32.6521C48.523 32.4454 48.4937 32.2488 48.2922 32.0625C48.221 32.0005 48.1325 31.9281 48.0252 31.8453C47.9189 31.7625 47.6879 31.6126 47.3323 31.3953C46.9771 31.1781 46.6011 30.9842 46.2046 30.8135C45.8077 30.643 45.2924 30.4697 44.6587 30.2939C44.0255 30.1179 43.3709 29.9991 42.6957 29.9371V27.2064C42.6957 27.0617 42.6425 26.9427 42.5363 26.8496C42.4297 26.7566 42.2935 26.71 42.1274 26.71H39.729C39.5751 26.71 39.4419 26.759 39.3294 26.8573C39.2169 26.9556 39.1606 27.0719 39.1606 27.2064V29.999C37.3012 30.3092 35.7912 31.0022 34.6306 32.0779C33.4701 33.1536 32.8897 34.4049 32.8897 35.8323C32.8897 36.2564 32.9402 36.6597 33.0409 37.0422C33.1414 37.425 33.2659 37.769 33.414 38.074C33.5619 38.3793 33.7722 38.6792 34.0446 38.974C34.3169 39.2688 34.5746 39.5222 34.8173 39.7341C35.0601 39.946 35.377 40.1659 35.7677 40.3933C36.1586 40.621 36.4932 40.8047 36.7715 40.9443C37.05 41.0834 37.42 41.2442 37.8817 41.4248C38.3436 41.6059 38.7079 41.7428 38.9744 41.8361C39.2409 41.9291 39.605 42.0585 40.0671 42.2237C40.7065 42.4409 41.1803 42.609 41.4882 42.728C41.7963 42.847 42.187 43.0125 42.661 43.2245C43.1346 43.4363 43.4808 43.6303 43.7001 43.8062C43.9192 43.9821 44.1175 44.1993 44.2952 44.4578C44.473 44.7163 44.562 44.9904 44.562 45.2802C44.562 46.0973 44.1979 46.7281 43.4693 47.1724C42.7411 47.6173 41.897 47.8397 40.9379 47.8397C40.5001 47.8397 40.0615 47.7986 39.6235 47.7158C38.0839 47.4466 36.645 46.8002 35.3068 45.7763L35.2713 45.7453C35.1646 45.6318 35.0224 45.5852 34.845 45.606C34.6555 45.6266 34.5192 45.6887 34.4364 45.7924L32.6066 47.8866C32.4289 48.0935 32.4409 48.3054 32.6422 48.5226C32.7015 48.5847 32.8051 48.6781 32.953 48.8019C33.1014 48.9263 33.3767 49.1199 33.7792 49.3842C34.1818 49.6481 34.62 49.896 35.0938 50.129C35.5676 50.3616 36.1685 50.5916 36.897 50.8193C37.6255 51.0465 38.3803 51.2068 39.1619 51.2998V54.0148C39.1619 54.1495 39.2183 54.2657 39.3307 54.3641C39.4432 54.4625 39.5764 54.5114 39.7303 54.5114H42.1287C42.2948 54.5114 42.431 54.4649 42.5375 54.3719C42.644 54.279 42.697 54.16 42.697 54.0149V51.2999C44.5803 51.031 46.111 50.3251 47.2893 49.1821C48.4676 48.0392 49.057 46.6765 49.057 45.0941C49.0563 44.5771 48.9795 44.091 48.8241 43.6356Z" fill="#5B5959"/>
<line x1="27.1787" y1="53.0752" x2="58.0647" y2="25.3843" stroke="#5B5959" stroke-width="1.06503"/>
<defs>
<filter id="filter0_d" x="0.568492" y="0.597656" width="82.2068" height="82.2068" filterUnits="userSpaceOnUse" color-interpolation-filters="sRGB">
<feFlood flood-opacity="0" result="BackgroundImageFix"/>
<feColorMatrix in="SourceAlpha" type="matrix" values="0 0 0 0 0 0 0 0 0 0 0 0 0 0 0 0 0 0 127 0"/>
<feOffset dy="1.34215"/>
<feGaussianBlur stdDeviation="0.671076"/>
<feColorMatrix type="matrix" values="0 0 0 0 0 0 0 0 0 0 0 0 0 0 0 0 0 0 0.25 0"/>
<feBlend mode="normal" in2="BackgroundImageFix" result="effect1_dropShadow"/>
<feBlend mode="normal" in="SourceGraphic" in2="effect1_dropShadow" result="shape"/>
</filter>
</defs>
</svg>
